# xmcd CD database file
#
# Track frame offsets:
#	150
#	4555
#	23072
#	39416
#	55161
#	73580
#	88875
#	104839
#	117935
#	133905
#	149910
#	168675
#	187787
#	204925
#	220082
#	235192
#	251832
#
# Disc length: 3526 seconds
#
# Revision: 2
# Processed by: cddbd v1.5.2PL0 Copyright (c) Steve Scherf et al.
# Submitted via: CDex 1.70beta2
#
DISCID=fa0dc411
DTITLE=BACK STREET BOYS - UNBREAKABLE
DYEAR=2007
DGENRE=Rock
TTITLE0=INTRO
TTITLE1=EVERYTHING BUT MINE
TTITLE2=INCONSOLABLE
TTITLE3=SOMETHING THAT I ALREADY KNOW
TTITLE4=HELPLESS WHEN SHE SMILES
TTITLE5=ANY OTHER WAY
TTITLE6=ONE IN A MILLION
TTITLE7=PANIC
TTITLE8=YOU CAN LET GO
TTITLE9=TROUBLE IS
TTITLE10=TREAT ME RIGHT
TTITLE11=LOVE WILL KEEP YOU UP ALL NIGHT
TTITLE12=UNMISTAKABLE
TTITLE13=UNSUSPECTING SUNDAY AFTERNOON
TTITLE14=DOWNPOUR
TTITLE15=IN PIECES
TTITLE16=NOWHERE TO GO
EXTD=YEAR: 2007
EXTT0=
EXTT1=
EXTT2=
EXTT3=
EXTT4=
EXTT5=
EXTT6=
EXTT7=
EXTT8=
EXTT9=
EXTT10=
EXTT11=
EXTT12=
EXTT13=
EXTT14=
EXTT15=
EXTT16=
PLAYORDER=
